<?xml version="1.0" encoding="UTF-8" standalone="no"?>
<!DOCTYPE svg PUBLIC "-//W3C//DTD SVG 1.1//EN" "http://www.w3.org/Graphics/SVG/1.1/DTD/svg11.dtd">
<svg width="100%" height="100%" viewBox="0 0 700 700" version="1.1" xmlns="http://www.w3.org/2000/svg" xmlns:xlink="http://www.w3.org/1999/xlink" xml:space="preserve" xmlns:serif="http://www.serif.com/" style="fill-rule:evenodd;clip-rule:evenodd;stroke-linejoin:round;stroke-miterlimit:2;">
    <path d="M700,175C700,78.415 621.585,0 525,0L175,0C78.415,0 0,78.415 0,175L0,525C0,621.585 78.415,700 175,700L525,700C621.585,700 700,621.585 700,525L700,175Z" style="fill:url(#_Linear1);"/>
    <g id="umbrella-with-rain-drops-svgrepo-com.svg" transform="matrix(0.875,0,0,0.875,350,350)">
        <g transform="matrix(1,0,0,1,-400,-400)">
            <path d="M384.57,590.087L384.57,647.993C384.57,668.947 367.427,686.087 346.477,686.087C325.523,686.087 308.38,668.947 308.38,647.993C308.38,639.42 301.523,632.563 292.951,632.563C284.38,632.563 277.523,639.42 277.523,647.993C277.523,686.087 308.57,717.137 346.667,717.137C384.76,717.137 415.81,686.087 415.81,647.993L415.81,590.087L384.57,590.087Z" style="fill:url(#_Linear2);fill-rule:nonzero;"/>
            <path d="M384.57,590.087L384.57,647.993C384.57,668.947 367.427,686.087 346.477,686.087C325.523,686.087 308.38,668.947 308.38,647.993C308.38,639.42 301.523,632.563 292.951,632.563C284.38,632.563 277.523,639.42 277.523,647.993C277.523,686.087 308.57,717.137 346.667,717.137C384.76,717.137 415.81,686.087 415.81,647.993L415.81,590.087L384.57,590.087Z" style="fill:url(#_Radial3);fill-rule:nonzero;"/>
            <path d="M384.57,590.267L384.57,599.03C384.57,601.507 391.427,603.41 400,603.41C408.57,603.41 415.427,601.507 415.427,599.03L415.427,590.267L384.57,590.267Z" style="fill:rgb(222,231,232);fill-rule:nonzero;"/>
            <path d="M400,594.65C408.52,594.65 415.427,592.69 415.427,590.27C415.427,587.85 408.52,585.89 400,585.89C391.477,585.89 384.57,587.85 384.57,590.27C384.57,592.69 391.477,594.65 400,594.65Z" style="fill:url(#_Linear4);fill-rule:nonzero;"/>
            <path d="M389.713,409.897L389.713,590.277C389.713,591.99 394.283,593.133 400,593.133C405.713,593.133 410.283,591.8 410.283,590.277L410.283,409.897L389.713,409.897Z" style="fill:url(#_Linear5);fill-rule:nonzero;"/>
            <path d="M389.713,409.897L389.713,590.277C389.713,591.99 394.283,593.133 400,593.133C405.713,593.133 410.283,591.8 410.283,590.277L410.283,409.897L389.713,409.897Z" style="fill:url(#_Radial6);fill-rule:nonzero;"/>
            <path d="M389.713,409.897L389.713,501.897C389.713,503.61 394.283,504.753 400,504.753C405.713,504.753 410.283,503.42 410.283,501.897L410.283,409.897L389.713,409.897Z" style="fill:url(#_Linear7);fill-rule:nonzero;"/>
            <path d="M339.997,167.039C345.14,164.563 349.14,162.468 352.187,160.563C211.998,181.135 100.569,291.039 76.188,431.23C86.855,426.657 98.664,423.99 110.855,423.99C125.141,423.99 138.664,427.42 150.664,433.517C150.855,433.517 176.569,244.373 339.997,167.039Z" style="fill:url(#_Linear8);fill-rule:nonzero;"/>
            <path d="M399.997,157.129C383.807,157.129 367.807,158.272 352.187,160.748C349.14,162.653 345.14,164.748 339.997,167.224C176.569,244.557 150.854,433.89 150.854,433.89C170.664,425.7 192.569,421.13 215.616,421.13C241.712,421.13 266.283,427.033 287.997,437.32C287.997,436.94 295.045,237.7 399.997,157.129Z" style="fill:url(#_Linear9);fill-rule:nonzero;"/>
            <path d="M399.997,157.129C295.044,237.7 287.996,437.13 287.996,437.13C321.711,423.607 359.807,415.987 399.997,415.987C440.187,415.987 478.093,423.607 511.997,437.13C511.997,436.94 504.95,237.7 399.997,157.129Z" style="fill:url(#_Radial10);fill-rule:nonzero;"/>
            <path d="M459.993,167.039C454.85,164.563 450.85,162.468 447.803,160.563C587.993,181.135 699.423,291.039 723.803,431.23C713.137,426.657 701.327,423.99 689.137,423.99C674.85,423.99 661.327,427.42 649.327,433.517C649.137,433.517 623.423,244.373 459.993,167.039Z" style="fill:url(#_Linear11);fill-rule:nonzero;"/>
            <path d="M400,157.129C416.19,157.129 432.19,158.272 447.81,160.748C450.857,162.653 454.857,164.748 460,167.224C623.43,244.557 649.143,433.89 649.143,433.89C629.333,425.7 607.43,421.13 584.38,421.13C558.287,421.13 533.713,427.033 512,437.32C512,436.94 504.953,237.7 400,157.129Z" style="fill:url(#_Linear12);fill-rule:nonzero;"/>
            <path d="M400,157.129C400,157.129 482.857,233.7 512,437.13C512,436.94 504.953,237.7 400,157.129Z" style="fill:url(#_Radial13);fill-rule:nonzero;"/>
            <path d="M511.997,436.953C511.997,436.953 457.9,407.047 399.997,407.047C337.9,407.047 287.996,436.953 287.996,436.953C321.711,423.43 359.807,415.81 399.997,415.81C440.187,415.81 478.093,423.43 511.997,436.953Z" style="fill:url(#_Radial14);fill-rule:nonzero;"/>
            <path d="M649.143,433.513C649.143,433.513 619.427,414.273 580.95,414.273C535.427,414.273 511.807,436.94 511.807,436.94C533.523,426.657 558.283,420.75 584.19,420.75C607.427,420.75 629.333,425.323 649.143,433.513Z" style="fill:url(#_Radial15);fill-rule:nonzero;"/>
            <path d="M723.81,431.23C723.81,431.23 707.237,419.613 689.143,419.613C658.857,419.613 649.333,433.517 649.333,433.517C661.333,427.423 674.857,423.993 689.143,423.993C701.333,423.993 713.143,426.66 723.81,431.23Z" style="fill:url(#_Linear16);fill-rule:nonzero;"/>
            <path d="M329.712,178.282C329.712,202.662 349.52,222.472 373.903,222.472C398.283,222.472 418.093,202.662 418.093,178.282C418.093,131.043 373.903,83.805 373.903,83.805C373.903,83.805 329.712,130.853 329.712,178.282Z" style="fill:url(#_Linear17);fill-rule:nonzero;"/>
            <path d="M373.33,84.375C369.52,108.565 344.95,131.232 350.283,177.327C354.283,211.423 405.33,213.518 417.903,180.946C416.57,203.994 397.33,222.47 373.903,222.47C349.52,222.47 329.712,202.661 329.712,178.28C329.712,133.899 368.38,89.899 373.33,84.375Z" style="fill:url(#_Radial18);fill-rule:nonzero;"/>
            <path d="M373.717,222.473C349.333,222.473 329.525,202.664 329.525,178.283C329.525,135.616 365.333,93.14 372.383,85.14C364.763,109.33 339.81,143.045 339.81,175.807C339.81,201.711 377.907,233.33 415.24,192.95C409.333,210.092 392.953,222.473 373.717,222.473Z" style="fill:url(#_Radial19);fill-rule:nonzero;"/>
            <path d="M329.712,178.282C329.712,202.662 349.52,222.472 373.903,222.472C398.283,222.472 418.093,202.662 418.093,178.282C418.093,131.043 373.903,83.805 373.903,83.805C373.903,83.805 329.712,130.853 329.712,178.282Z" style="fill:url(#_Radial20);fill-rule:nonzero;"/>
            <path d="M329.712,178.282C329.712,202.662 349.52,222.472 373.903,222.472C398.283,222.472 418.093,202.662 418.093,178.282C418.093,131.043 373.903,83.805 373.903,83.805C373.903,83.805 329.712,130.853 329.712,178.282Z" style="fill:url(#_Radial21);fill-rule:nonzero;"/>
            <path d="M329.712,178.282C329.712,202.662 349.52,222.472 373.903,222.472C398.283,222.472 418.093,202.662 418.093,178.282C418.093,131.043 373.903,83.805 373.903,83.805C373.903,83.805 329.712,130.853 329.712,178.282Z" style="fill:url(#_Radial22);fill-rule:nonzero;"/>
            <path d="M436.19,316.758C436.19,341.14 456,360.95 480.38,360.95C504.76,360.95 524.57,341.14 524.57,316.758C524.57,269.52 480.38,222.282 480.38,222.282C480.38,222.282 436.19,269.52 436.19,316.758Z" style="fill:url(#_Linear23);fill-rule:nonzero;"/>
            <path d="M479.81,223.047C476,247.237 451.427,269.904 456.76,315.999C460.76,350.093 511.81,352.19 524.38,319.618C523.047,342.667 503.81,361.143 480.38,361.143C456,361.143 436.19,341.333 436.19,316.952C436.19,272.571 474.857,228.38 479.81,223.047Z" style="fill:url(#_Radial24);fill-rule:nonzero;"/>
            <path d="M480.38,360.95C456,360.95 436.19,341.14 436.19,316.759C436.19,274.093 472,231.617 479.047,223.617C471.427,247.807 446.477,281.521 446.477,314.283C446.477,340.187 484.57,371.807 521.903,331.426C516,348.76 499.62,360.95 480.38,360.95Z" style="fill:url(#_Radial25);fill-rule:nonzero;"/>
            <path d="M436.19,316.758C436.19,341.14 456,360.95 480.38,360.95C504.76,360.95 524.57,341.14 524.57,316.758C524.57,269.52 480.38,222.282 480.38,222.282C480.38,222.282 436.19,269.52 436.19,316.758Z" style="fill:url(#_Radial26);fill-rule:nonzero;"/>
            <path d="M436.19,316.758C436.19,341.14 456,360.95 480.38,360.95C504.76,360.95 524.57,341.14 524.57,316.758C524.57,269.52 480.38,222.282 480.38,222.282C480.38,222.282 436.19,269.52 436.19,316.758Z" style="fill:url(#_Radial27);fill-rule:nonzero;"/>
            <path d="M436.19,316.758C436.19,341.14 456,360.95 480.38,360.95C504.76,360.95 524.57,341.14 524.57,316.758C524.57,269.52 480.38,222.282 480.38,222.282C480.38,222.282 436.19,269.52 436.19,316.758Z" style="fill:url(#_Radial28);fill-rule:nonzero;"/>
            <path d="M563.997,234.092C563.997,258.473 583.807,278.283 608.187,278.283C632.57,278.283 652.38,258.473 652.38,234.092C652.38,186.854 608.187,139.616 608.187,139.616C608.187,139.616 563.997,186.664 563.997,234.092Z" style="fill:url(#_Linear29);fill-rule:nonzero;"/>
            <path d="M607.617,140.186C603.807,164.376 579.237,187.043 584.57,233.138C588.57,267.233 639.617,269.328 652.187,236.757C650.853,259.805 631.617,278.281 608.187,278.281C583.807,278.281 563.997,258.471 563.997,234.09C563.997,189.709 602.663,145.709 607.617,140.186Z" style="fill:url(#_Radial30);fill-rule:nonzero;"/>
            <path d="M608.187,278.284C583.807,278.284 563.997,258.474 563.997,234.093C563.997,191.427 599.807,148.951 606.853,140.951C599.237,165.141 574.283,198.855 574.283,231.617C574.283,257.522 612.377,289.141 649.71,248.76C643.617,265.903 627.427,278.284 608.187,278.284Z" style="fill:url(#_Radial31);fill-rule:nonzero;"/>
            <path d="M563.997,234.092C563.997,258.473 583.807,278.283 608.187,278.283C632.57,278.283 652.38,258.473 652.38,234.092C652.38,186.854 608.187,139.616 608.187,139.616C608.187,139.616 563.997,186.664 563.997,234.092Z" style="fill:url(#_Radial32);fill-rule:nonzero;"/>
            <path d="M563.997,234.092C563.997,258.473 583.807,278.283 608.187,278.283C632.57,278.283 652.38,258.473 652.38,234.092C652.38,186.854 608.187,139.616 608.187,139.616C608.187,139.616 563.997,186.664 563.997,234.092Z" style="fill:url(#_Radial33);fill-rule:nonzero;"/>
            <path d="M563.997,234.092C563.997,258.473 583.807,278.283 608.187,278.283C632.57,278.283 652.38,258.473 652.38,234.092C652.38,186.854 608.187,139.616 608.187,139.616C608.187,139.616 563.997,186.664 563.997,234.092Z" style="fill:url(#_Radial34);fill-rule:nonzero;"/>
            <path d="M239.998,347.617C239.998,372 259.808,391.807 284.189,391.807C308.57,391.807 328.379,372 328.379,347.617C328.379,300.379 284.189,253.141 284.189,253.141C284.189,253.141 239.998,300.379 239.998,347.617Z" style="fill:url(#_Linear35);fill-rule:nonzero;"/>
            <path d="M283.805,253.906C279.996,278.097 255.424,300.763 260.758,346.86C264.758,380.953 315.805,383.05 328.377,350.477C327.044,373.527 307.805,392 284.377,392C259.996,392 240.186,372.193 240.186,347.81C239.996,303.43 278.663,259.24 283.805,253.906Z" style="fill:url(#_Radial36);fill-rule:nonzero;"/>
            <path d="M284.189,391.81C259.808,391.81 239.998,372 239.998,347.62C239.998,304.952 275.808,262.476 282.856,254.476C275.236,278.666 250.284,312.381 250.284,345.143C250.284,371.047 288.379,402.667 325.713,362.287C319.808,379.62 303.427,391.81 284.189,391.81Z" style="fill:url(#_Radial37);fill-rule:nonzero;"/>
            <path d="M239.998,347.617C239.998,372 259.808,391.807 284.189,391.807C308.57,391.807 328.379,372 328.379,347.617C328.379,300.379 284.189,253.141 284.189,253.141C284.189,253.141 239.998,300.379 239.998,347.617Z" style="fill:url(#_Radial38);fill-rule:nonzero;"/>
            <path d="M239.998,347.617C239.998,372 259.808,391.807 284.189,391.807C308.57,391.807 328.379,372 328.379,347.617C328.379,300.379 284.189,253.141 284.189,253.141C284.189,253.141 239.998,300.379 239.998,347.617Z" style="fill:url(#_Radial39);fill-rule:nonzero;"/>
            <path d="M239.998,347.617C239.998,372 259.808,391.807 284.189,391.807C308.57,391.807 328.379,372 328.379,347.617C328.379,300.379 284.189,253.141 284.189,253.141C284.189,253.141 239.998,300.379 239.998,347.617Z" style="fill:url(#_Radial40);fill-rule:nonzero;"/>
            <path d="M92.57,292.002C92.57,316.383 112.38,336.193 136.76,336.193C161.141,336.193 180.951,316.383 180.951,292.002C180.951,244.764 136.76,197.526 136.76,197.526C136.76,197.526 92.57,244.764 92.57,292.002Z" style="fill:url(#_Linear41);fill-rule:nonzero;"/>
            <path d="M136.377,198.096C132.567,222.286 107.996,244.953 113.329,291.048C117.329,325.143 168.377,327.239 180.948,294.667C179.615,317.715 160.377,336.19 136.948,336.19C112.567,336.19 92.758,316.381 92.758,292.001C92.567,247.81 131.425,203.62 136.377,198.096Z" style="fill:url(#_Radial42);fill-rule:nonzero;"/>
            <path d="M136.76,336.193C112.38,336.193 92.57,316.384 92.57,292.003C92.57,249.337 128.38,206.861 135.427,198.861C127.808,223.051 102.856,256.765 102.856,289.527C102.856,315.432 140.951,347.05 178.284,306.67C172.38,324.003 155.999,336.193 136.76,336.193Z" style="fill:url(#_Radial43);fill-rule:nonzero;"/>
            <path d="M92.57,292.002C92.57,316.383 112.38,336.193 136.76,336.193C161.141,336.193 180.951,316.383 180.951,292.002C180.951,244.764 136.76,197.526 136.76,197.526C136.76,197.526 92.57,244.764 92.57,292.002Z" style="fill:url(#_Radial44);fill-rule:nonzero;"/>
            <path d="M92.57,292.002C92.57,316.383 112.38,336.193 136.76,336.193C161.141,336.193 180.951,316.383 180.951,292.002C180.951,244.764 136.76,197.526 136.76,197.526C136.76,197.526 92.57,244.764 92.57,292.002Z" style="fill:url(#_Radial45);fill-rule:nonzero;"/>
            <path d="M92.57,292.002C92.57,316.383 112.38,336.193 136.76,336.193C161.141,336.193 180.951,316.383 180.951,292.002C180.951,244.764 136.76,197.526 136.76,197.526C136.76,197.526 92.57,244.764 92.57,292.002Z" style="fill:url(#_Radial46);fill-rule:nonzero;"/>
        </g>
    </g>
    <defs>
        <linearGradient id="_Linear1" x1="0" y1="0" x2="1" y2="0" gradientUnits="userSpaceOnUse" gradientTransform="matrix(700,700,-700,700,0,0)"><stop offset="0" style="stop-color:rgb(81,89,179);stop-opacity:1"/><stop offset="0.56" style="stop-color:rgb(151,188,206);stop-opacity:0.83"/><stop offset="1" style="stop-color:rgb(209,156,200);stop-opacity:1"/></linearGradient>
        <linearGradient id="_Linear2" x1="0" y1="0" x2="1" y2="0" gradientUnits="userSpaceOnUse" gradientTransform="matrix(385.829,412.337,-412.337,385.829,100.218,369.49)"><stop offset="0" style="stop-color:rgb(147,159,161);stop-opacity:1"/><stop offset="0.19" style="stop-color:rgb(142,153,155);stop-opacity:1"/><stop offset="0.44" style="stop-color:rgb(127,135,136);stop-opacity:1"/><stop offset="0.74" style="stop-color:rgb(102,107,107);stop-opacity:1"/><stop offset="1" style="stop-color:rgb(77,77,76);stop-opacity:1"/></linearGradient>
        <radialGradient id="_Radial3" cx="0" cy="0" r="1" gradientUnits="userSpaceOnUse" gradientTransform="matrix(82.6147,0,0,119.139,345.19,600.077)"><stop offset="0" style="stop-color:rgb(222,231,232);stop-opacity:0"/><stop offset="0.54" style="stop-color:rgb(222,231,232);stop-opacity:0"/><stop offset="0.81" style="stop-color:rgb(222,231,232);stop-opacity:0.25"/><stop offset="1" style="stop-color:rgb(222,231,232);stop-opacity:0"/></radialGradient>
        <linearGradient id="_Linear4" x1="0" y1="0" x2="1" y2="0" gradientUnits="userSpaceOnUse" gradientTransform="matrix(25.0367,39.0267,-39.0267,25.0367,366.983,538.897)"><stop offset="0" style="stop-color:rgb(147,159,161);stop-opacity:1"/><stop offset="0.19" style="stop-color:rgb(142,153,155);stop-opacity:1"/><stop offset="0.44" style="stop-color:rgb(127,135,136);stop-opacity:1"/><stop offset="0.74" style="stop-color:rgb(102,107,107);stop-opacity:1"/><stop offset="1" style="stop-color:rgb(77,77,76);stop-opacity:1"/></linearGradient>
        <linearGradient id="_Linear5" x1="0" y1="0" x2="1" y2="0" gradientUnits="userSpaceOnUse" gradientTransform="matrix(139.9,-51.5433,51.5433,139.9,334.347,524.863)"><stop offset="0" style="stop-color:rgb(147,159,161);stop-opacity:1"/><stop offset="0.19" style="stop-color:rgb(142,153,155);stop-opacity:1"/><stop offset="0.44" style="stop-color:rgb(127,135,136);stop-opacity:1"/><stop offset="0.74" style="stop-color:rgb(102,107,107);stop-opacity:1"/><stop offset="1" style="stop-color:rgb(77,77,76);stop-opacity:1"/></linearGradient>
        <radialGradient id="_Radial6" cx="0" cy="0" r="1" gradientUnits="userSpaceOnUse" gradientTransform="matrix(1.12082,88.8416,-12.4124,0.156593,398.91,517.093)"><stop offset="0" style="stop-color:rgb(222,231,232);stop-opacity:0.25"/><stop offset="0.91" style="stop-color:rgb(222,231,232);stop-opacity:0"/><stop offset="1" style="stop-color:rgb(222,231,232);stop-opacity:0"/></radialGradient>
        <linearGradient id="_Linear7" x1="0" y1="0" x2="1" y2="0" gradientUnits="userSpaceOnUse" gradientTransform="matrix(-8.1,-103.82,103.82,-8.1,403.33,498.713)"><stop offset="0" style="stop-color:black;stop-opacity:0"/><stop offset="1" style="stop-color:black;stop-opacity:0.5"/></linearGradient>
        <linearGradient id="_Linear8" x1="0" y1="0" x2="1" y2="0" gradientUnits="userSpaceOnUse" gradientTransform="matrix(424.117,90.5667,-90.5667,424.117,-183.711,210.906)"><stop offset="0" style="stop-color:rgb(247,129,116);stop-opacity:1"/><stop offset="1" style="stop-color:rgb(112,0,163);stop-opacity:1"/></linearGradient>
        <linearGradient id="_Linear9" x1="0" y1="0" x2="1" y2="0" gradientUnits="userSpaceOnUse" gradientTransform="matrix(311.461,88.3577,-88.3577,311.461,0.855257,217.416)"><stop offset="0" style="stop-color:rgb(247,129,116);stop-opacity:1"/><stop offset="1" style="stop-color:rgb(112,0,163);stop-opacity:1"/></linearGradient>
        <radialGradient id="_Radial10" cx="0" cy="0" r="1" gradientUnits="userSpaceOnUse" gradientTransform="matrix(-4.4869,381.804,-148.46,-1.74468,402.197,555.443)"><stop offset="0" style="stop-color:rgb(247,129,116);stop-opacity:1"/><stop offset="1" style="stop-color:rgb(112,0,163);stop-opacity:1"/></radialGradient>
        <linearGradient id="_Linear11" x1="0" y1="0" x2="1" y2="0" gradientUnits="userSpaceOnUse" gradientTransform="matrix(-424.117,90.5667,-90.5667,-424.117,983.703,210.906)"><stop offset="0" style="stop-color:rgb(247,129,116);stop-opacity:1"/><stop offset="1" style="stop-color:rgb(112,0,163);stop-opacity:1"/></linearGradient>
        <linearGradient id="_Linear12" x1="0" y1="0" x2="1" y2="0" gradientUnits="userSpaceOnUse" gradientTransform="matrix(-311.463,88.3577,-88.3577,-311.463,799.143,217.416)"><stop offset="0" style="stop-color:rgb(247,129,116);stop-opacity:1"/><stop offset="1" style="stop-color:rgb(112,0,163);stop-opacity:1"/></linearGradient>
        <radialGradient id="_Radial13" cx="0" cy="0" r="1" gradientUnits="userSpaceOnUse" gradientTransform="matrix(58.9141,170.082,-26.7481,9.26518,477.017,289.933)"><stop offset="0" style="stop-color:rgb(247,129,116);stop-opacity:0.24"/><stop offset="1" style="stop-color:rgb(246,121,79);stop-opacity:0"/></radialGradient>
        <radialGradient id="_Radial14" cx="0" cy="0" r="1" gradientUnits="userSpaceOnUse" gradientTransform="matrix(-261.653,-3.19228,1.24128,-101.741,402.95,438.74)"><stop offset="0" style="stop-color:rgb(247,129,116);stop-opacity:1"/><stop offset="1" style="stop-color:rgb(112,0,163);stop-opacity:1"/></radialGradient>
        <radialGradient id="_Radial15" cx="0" cy="0" r="1" gradientUnits="userSpaceOnUse" gradientTransform="matrix(165.668,-5.15424,1.1113,35.7197,627.187,435.76)"><stop offset="0" style="stop-color:rgb(247,129,116);stop-opacity:1"/><stop offset="1" style="stop-color:rgb(112,0,163);stop-opacity:1"/></radialGradient>
        <linearGradient id="_Linear16" x1="0" y1="0" x2="1" y2="0" gradientUnits="userSpaceOnUse" gradientTransform="matrix(143.83,30.7133,-30.7133,143.83,552.12,401.06)"><stop offset="0" style="stop-color:rgb(247,129,116);stop-opacity:1"/><stop offset="1" style="stop-color:rgb(112,0,163);stop-opacity:1"/></linearGradient>
        <linearGradient id="_Linear17" x1="0" y1="0" x2="1" y2="0" gradientUnits="userSpaceOnUse" gradientTransform="matrix(-249.346,-72.0647,72.0647,-249.346,499.947,190.477)"><stop offset="0" style="stop-color:rgb(209,242,255);stop-opacity:1"/><stop offset="0.67" style="stop-color:rgb(128,218,254);stop-opacity:1"/><stop offset="1" style="stop-color:rgb(0,153,214);stop-opacity:1"/></linearGradient>
        <radialGradient id="_Radial18" cx="0" cy="0" r="1" gradientUnits="userSpaceOnUse" gradientTransform="matrix(-69.6103,12.811,-19.7327,-107.22,378.903,146.165)"><stop offset="0" style="stop-color:rgb(128,218,254);stop-opacity:0.5"/><stop offset="0.57" style="stop-color:rgb(128,218,254);stop-opacity:0.5"/><stop offset="1" style="stop-color:rgb(0,153,214);stop-opacity:0.5"/></radialGradient>
        <radialGradient id="_Radial19" cx="0" cy="0" r="1" gradientUnits="userSpaceOnUse" gradientTransform="matrix(-57.2203,-4.38144e-14,7.55989e-14,-98.73,364.733,154.843)"><stop offset="0" style="stop-color:rgb(128,218,254);stop-opacity:1"/><stop offset="0.34" style="stop-color:rgb(128,218,254);stop-opacity:1"/><stop offset="1" style="stop-color:rgb(0,153,214);stop-opacity:1"/></radialGradient>
        <radialGradient id="_Radial20" cx="0" cy="0" r="1" gradientUnits="userSpaceOnUse" gradientTransform="matrix(-15.1075,-62.4232,27.5068,-6.65714,391.373,140.48)"><stop offset="0" style="stop-color:white;stop-opacity:0.25"/><stop offset="1" style="stop-color:white;stop-opacity:0"/></radialGradient>
        <radialGradient id="_Radial21" cx="0" cy="0" r="1" gradientUnits="userSpaceOnUse" gradientTransform="matrix(-32.6929,94.9524,-72.164,-24.8466,378.993,142.508)"><stop offset="0" style="stop-color:rgb(0,153,214);stop-opacity:0"/><stop offset="0.59" style="stop-color:rgb(0,153,214);stop-opacity:0"/><stop offset="0.72" style="stop-color:rgb(20,119,229);stop-opacity:0.16"/><stop offset="0.9" style="stop-color:rgb(45,79,248);stop-opacity:0.38"/><stop offset="1" style="stop-color:rgb(54,64,255);stop-opacity:0.5"/></radialGradient>
        <radialGradient id="_Radial22" cx="0" cy="0" r="1" gradientUnits="userSpaceOnUse" gradientTransform="matrix(-18.9922,-78.4745,34.5797,-8.3689,391.373,140.48)"><stop offset="0" style="stop-color:white;stop-opacity:0.45"/><stop offset="1" style="stop-color:white;stop-opacity:0"/></radialGradient>
        <linearGradient id="_Linear23" x1="0" y1="0" x2="1" y2="0" gradientUnits="userSpaceOnUse" gradientTransform="matrix(-249.343,-72.065,72.065,-249.343,606.553,329.088)"><stop offset="0" style="stop-color:rgb(209,242,255);stop-opacity:1"/><stop offset="0.67" style="stop-color:rgb(128,218,254);stop-opacity:1"/><stop offset="1" style="stop-color:rgb(0,153,214);stop-opacity:1"/></linearGradient>
        <radialGradient id="_Radial24" cx="0" cy="0" r="1" gradientUnits="userSpaceOnUse" gradientTransform="matrix(-69.6103,12.811,-19.7327,-107.22,485.497,284.801)"><stop offset="0" style="stop-color:rgb(128,218,254);stop-opacity:0.5"/><stop offset="0.57" style="stop-color:rgb(128,218,254);stop-opacity:0.5"/><stop offset="1" style="stop-color:rgb(0,153,214);stop-opacity:0.5"/></radialGradient>
        <radialGradient id="_Radial25" cx="0" cy="0" r="1" gradientUnits="userSpaceOnUse" gradientTransform="matrix(-57.2203,-4.38144e-14,7.55989e-14,-98.73,471.32,293.441)"><stop offset="0" style="stop-color:rgb(128,218,254);stop-opacity:1"/><stop offset="0.34" style="stop-color:rgb(128,218,254);stop-opacity:1"/><stop offset="1" style="stop-color:rgb(0,153,214);stop-opacity:1"/></radialGradient>
        <radialGradient id="_Radial26" cx="0" cy="0" r="1" gradientUnits="userSpaceOnUse" gradientTransform="matrix(-15.1075,-62.4232,27.5069,-6.65715,497.98,279.087)"><stop offset="0" style="stop-color:white;stop-opacity:0.25"/><stop offset="1" style="stop-color:white;stop-opacity:0"/></radialGradient>
        <radialGradient id="_Radial27" cx="0" cy="0" r="1" gradientUnits="userSpaceOnUse" gradientTransform="matrix(-32.6929,94.9524,-72.164,-24.8466,485.607,281.124)"><stop offset="0" style="stop-color:rgb(0,153,214);stop-opacity:0"/><stop offset="0.59" style="stop-color:rgb(0,153,214);stop-opacity:0"/><stop offset="0.72" style="stop-color:rgb(20,119,229);stop-opacity:0.16"/><stop offset="0.9" style="stop-color:rgb(45,79,248);stop-opacity:0.38"/><stop offset="1" style="stop-color:rgb(54,64,255);stop-opacity:0.5"/></radialGradient>
        <radialGradient id="_Radial28" cx="0" cy="0" r="1" gradientUnits="userSpaceOnUse" gradientTransform="matrix(-18.9922,-78.4745,34.5797,-8.3689,497.98,279.087)"><stop offset="0" style="stop-color:white;stop-opacity:0.45"/><stop offset="1" style="stop-color:white;stop-opacity:0"/></radialGradient>
        <linearGradient id="_Linear29" x1="0" y1="0" x2="1" y2="0" gradientUnits="userSpaceOnUse" gradientTransform="matrix(-249.347,-72.065,72.065,-249.347,734.31,246.275)"><stop offset="0" style="stop-color:rgb(209,242,255);stop-opacity:1"/><stop offset="0.67" style="stop-color:rgb(128,218,254);stop-opacity:1"/><stop offset="1" style="stop-color:rgb(0,153,214);stop-opacity:1"/></linearGradient>
        <radialGradient id="_Radial30" cx="0" cy="0" r="1" gradientUnits="userSpaceOnUse" gradientTransform="matrix(-69.6103,12.811,-19.7327,-107.22,613.237,201.971)"><stop offset="0" style="stop-color:rgb(128,218,254);stop-opacity:0.5"/><stop offset="0.57" style="stop-color:rgb(128,218,254);stop-opacity:0.5"/><stop offset="1" style="stop-color:rgb(0,153,214);stop-opacity:0.5"/></radialGradient>
        <radialGradient id="_Radial31" cx="0" cy="0" r="1" gradientUnits="userSpaceOnUse" gradientTransform="matrix(-57.2203,-4.38144e-14,7.55989e-14,-98.73,599.057,210.635)"><stop offset="0" style="stop-color:rgb(128,218,254);stop-opacity:1"/><stop offset="0.34" style="stop-color:rgb(128,218,254);stop-opacity:1"/><stop offset="1" style="stop-color:rgb(0,153,214);stop-opacity:1"/></radialGradient>
        <radialGradient id="_Radial32" cx="0" cy="0" r="1" gradientUnits="userSpaceOnUse" gradientTransform="matrix(-15.1075,-62.4232,27.5069,-6.65715,625.737,196.271)"><stop offset="0" style="stop-color:white;stop-opacity:0.25"/><stop offset="1" style="stop-color:white;stop-opacity:0"/></radialGradient>
        <radialGradient id="_Radial33" cx="0" cy="0" r="1" gradientUnits="userSpaceOnUse" gradientTransform="matrix(-32.6929,94.9524,-72.164,-24.8466,613.363,198.317)"><stop offset="0" style="stop-color:rgb(0,153,214);stop-opacity:0"/><stop offset="0.59" style="stop-color:rgb(0,153,214);stop-opacity:0"/><stop offset="0.72" style="stop-color:rgb(20,119,229);stop-opacity:0.16"/><stop offset="0.9" style="stop-color:rgb(45,79,248);stop-opacity:0.38"/><stop offset="1" style="stop-color:rgb(54,64,255);stop-opacity:0.5"/></radialGradient>
        <radialGradient id="_Radial34" cx="0" cy="0" r="1" gradientUnits="userSpaceOnUse" gradientTransform="matrix(-18.9922,-78.4745,34.5797,-8.3689,625.737,196.271)"><stop offset="0" style="stop-color:white;stop-opacity:0.45"/><stop offset="1" style="stop-color:white;stop-opacity:0"/></radialGradient>
        <linearGradient id="_Linear35" x1="0" y1="0" x2="1" y2="0" gradientUnits="userSpaceOnUse" gradientTransform="matrix(-249.347,-72.065,72.065,-249.347,410.383,359.923)"><stop offset="0" style="stop-color:rgb(209,242,255);stop-opacity:1"/><stop offset="0.67" style="stop-color:rgb(128,218,254);stop-opacity:1"/><stop offset="1" style="stop-color:rgb(0,153,214);stop-opacity:1"/></linearGradient>
        <radialGradient id="_Radial36" cx="0" cy="0" r="1" gradientUnits="userSpaceOnUse" gradientTransform="matrix(-69.6106,12.8111,-19.7327,-107.22,289.346,315.64)"><stop offset="0" style="stop-color:rgb(128,218,254);stop-opacity:0.5"/><stop offset="0.57" style="stop-color:rgb(128,218,254);stop-opacity:0.5"/><stop offset="1" style="stop-color:rgb(0,153,214);stop-opacity:0.5"/></radialGradient>
        <radialGradient id="_Radial37" cx="0" cy="0" r="1" gradientUnits="userSpaceOnUse" gradientTransform="matrix(-57.2203,-4.38144e-14,7.55989e-14,-98.73,275.177,324.275)"><stop offset="0" style="stop-color:rgb(128,218,254);stop-opacity:1"/><stop offset="0.34" style="stop-color:rgb(128,218,254);stop-opacity:1"/><stop offset="1" style="stop-color:rgb(0,153,214);stop-opacity:1"/></radialGradient>
        <radialGradient id="_Radial38" cx="0" cy="0" r="1" gradientUnits="userSpaceOnUse" gradientTransform="matrix(-15.1075,-62.4232,27.5069,-6.65715,301.806,309.929)"><stop offset="0" style="stop-color:white;stop-opacity:0.25"/><stop offset="1" style="stop-color:white;stop-opacity:0"/></radialGradient>
        <radialGradient id="_Radial39" cx="0" cy="0" r="1" gradientUnits="userSpaceOnUse" gradientTransform="matrix(-32.6929,94.9524,-72.164,-24.8466,289.428,311.951)"><stop offset="0" style="stop-color:rgb(0,153,214);stop-opacity:0"/><stop offset="0.59" style="stop-color:rgb(0,153,214);stop-opacity:0"/><stop offset="0.72" style="stop-color:rgb(20,119,229);stop-opacity:0.16"/><stop offset="0.9" style="stop-color:rgb(45,79,248);stop-opacity:0.38"/><stop offset="1" style="stop-color:rgb(54,64,255);stop-opacity:0.5"/></radialGradient>
        <radialGradient id="_Radial40" cx="0" cy="0" r="1" gradientUnits="userSpaceOnUse" gradientTransform="matrix(-18.9922,-78.4745,34.5797,-8.3689,301.806,309.929)"><stop offset="0" style="stop-color:white;stop-opacity:0.45"/><stop offset="1" style="stop-color:white;stop-opacity:0"/></radialGradient>
        <linearGradient id="_Linear41" x1="0" y1="0" x2="1" y2="0" gradientUnits="userSpaceOnUse" gradientTransform="matrix(-249.346,-72.065,72.065,-249.346,262.983,304.257)"><stop offset="0" style="stop-color:rgb(209,242,255);stop-opacity:1"/><stop offset="0.67" style="stop-color:rgb(128,218,254);stop-opacity:1"/><stop offset="1" style="stop-color:rgb(0,153,214);stop-opacity:1"/></linearGradient>
        <radialGradient id="_Radial42" cx="0" cy="0" r="1" gradientUnits="userSpaceOnUse" gradientTransform="matrix(-69.6103,12.811,-19.7327,-107.22,141.965,259.961)"><stop offset="0" style="stop-color:rgb(128,218,254);stop-opacity:0.5"/><stop offset="0.57" style="stop-color:rgb(128,218,254);stop-opacity:0.5"/><stop offset="1" style="stop-color:rgb(0,153,214);stop-opacity:0.5"/></radialGradient>
        <radialGradient id="_Radial43" cx="0" cy="0" r="1" gradientUnits="userSpaceOnUse" gradientTransform="matrix(-57.2203,-4.38144e-14,7.55989e-14,-98.73,127.8,268.612)"><stop offset="0" style="stop-color:rgb(128,218,254);stop-opacity:1"/><stop offset="0.34" style="stop-color:rgb(128,218,254);stop-opacity:1"/><stop offset="1" style="stop-color:rgb(0,153,214);stop-opacity:1"/></radialGradient>
        <radialGradient id="_Radial44" cx="0" cy="0" r="1" gradientUnits="userSpaceOnUse" gradientTransform="matrix(-15.1075,-62.4232,27.5069,-6.65715,154.409,254.266)"><stop offset="0" style="stop-color:white;stop-opacity:0.25"/><stop offset="1" style="stop-color:white;stop-opacity:0"/></radialGradient>
        <radialGradient id="_Radial45" cx="0" cy="0" r="1" gradientUnits="userSpaceOnUse" gradientTransform="matrix(-32.6929,94.9524,-72.164,-24.8466,142.024,256.277)"><stop offset="0" style="stop-color:rgb(0,153,214);stop-opacity:0"/><stop offset="0.59" style="stop-color:rgb(0,153,214);stop-opacity:0"/><stop offset="0.72" style="stop-color:rgb(20,119,229);stop-opacity:0.16"/><stop offset="0.9" style="stop-color:rgb(45,79,248);stop-opacity:0.38"/><stop offset="1" style="stop-color:rgb(54,64,255);stop-opacity:0.5"/></radialGradient>
        <radialGradient id="_Radial46" cx="0" cy="0" r="1" gradientUnits="userSpaceOnUse" gradientTransform="matrix(-18.9921,-78.4742,34.5797,-8.3689,154.409,254.266)"><stop offset="0" style="stop-color:white;stop-opacity:0.45"/><stop offset="1" style="stop-color:white;stop-opacity:0"/></radialGradient>
    </defs>
</svg>
